<mxfile host="app.diagrams.net" modified="2022-01-25T10:08:37.064Z" agent="5.0 (Windows NT 10.0; Win64; x64) AppleWebKit/537.36 (KHTML, like Gecko) Chrome/97.0.4692.99 Safari/537.36" etag="WUW4LRtcpTWEbRaZupv8" version="16.4.5" type="github">
  <diagram id="C5RBs43oDa-KdzZeNtuy" name="Page-1">
    <mxGraphModel dx="1422" dy="798" grid="1" gridSize="10" guides="1" tooltips="1" connect="1" arrows="1" fold="1" page="1" pageScale="1" pageWidth="827" pageHeight="1169" math="0" shadow="0">
      <root>
        <mxCell id="WIyWlLk6GJQsqaUBKTNV-0" />
        <mxCell id="WIyWlLk6GJQsqaUBKTNV-1" parent="WIyWlLk6GJQsqaUBKTNV-0" />
        <mxCell id="7nWHytdZgHWwC759bLuL-37" value="download" style="edgeStyle=orthogonalEdgeStyle;rounded=0;orthogonalLoop=1;jettySize=auto;html=1;exitX=0;exitY=0.5;exitDx=0;exitDy=0;" edge="1" parent="WIyWlLk6GJQsqaUBKTNV-1" source="7nWHytdZgHWwC759bLuL-1" target="7nWHytdZgHWwC759bLuL-36">
          <mxGeometry relative="1" as="geometry" />
        </mxCell>
        <mxCell id="7nWHytdZgHWwC759bLuL-1" value="Trait Assets" style="shape=parallelogram;html=1;strokeWidth=2;perimeter=parallelogramPerimeter;whiteSpace=wrap;rounded=1;arcSize=12;size=0.23;" vertex="1" parent="WIyWlLk6GJQsqaUBKTNV-1">
          <mxGeometry x="730" y="600" width="100" height="60" as="geometry" />
        </mxCell>
        <mxCell id="7nWHytdZgHWwC759bLuL-28" style="edgeStyle=orthogonalEdgeStyle;rounded=0;orthogonalLoop=1;jettySize=auto;html=1;exitX=0.5;exitY=1;exitDx=0;exitDy=0;entryX=0.5;entryY=0;entryDx=0;entryDy=0;" edge="1" parent="WIyWlLk6GJQsqaUBKTNV-1" source="7nWHytdZgHWwC759bLuL-2" target="7nWHytdZgHWwC759bLuL-45">
          <mxGeometry relative="1" as="geometry">
            <mxPoint x="545" y="445" as="targetPoint" />
          </mxGeometry>
        </mxCell>
        <mxCell id="7nWHytdZgHWwC759bLuL-2" value="Generator" style="rounded=1;whiteSpace=wrap;html=1;" vertex="1" parent="WIyWlLk6GJQsqaUBKTNV-1">
          <mxGeometry x="485" y="300" width="120" height="60" as="geometry" />
        </mxCell>
        <mxCell id="7nWHytdZgHWwC759bLuL-16" value="" style="edgeStyle=orthogonalEdgeStyle;rounded=0;orthogonalLoop=1;jettySize=auto;html=1;" edge="1" parent="WIyWlLk6GJQsqaUBKTNV-1" source="7nWHytdZgHWwC759bLuL-3" target="7nWHytdZgHWwC759bLuL-4">
          <mxGeometry relative="1" as="geometry" />
        </mxCell>
        <mxCell id="7nWHytdZgHWwC759bLuL-3" value="Site" style="rounded=1;whiteSpace=wrap;html=1;" vertex="1" parent="WIyWlLk6GJQsqaUBKTNV-1">
          <mxGeometry x="223" y="600" width="120" height="60" as="geometry" />
        </mxCell>
        <mxCell id="7nWHytdZgHWwC759bLuL-50" value="gib wassie nfts" style="edgeStyle=orthogonalEdgeStyle;rounded=0;orthogonalLoop=1;jettySize=auto;html=1;exitX=1;exitY=0.75;exitDx=0;exitDy=0;entryX=0.5;entryY=0;entryDx=0;entryDy=0;entryPerimeter=0;" edge="1" parent="WIyWlLk6GJQsqaUBKTNV-1" source="7nWHytdZgHWwC759bLuL-4" target="7nWHytdZgHWwC759bLuL-29">
          <mxGeometry relative="1" as="geometry" />
        </mxCell>
        <mxCell id="7nWHytdZgHWwC759bLuL-4" value="Minting" style="rounded=1;whiteSpace=wrap;html=1;" vertex="1" parent="WIyWlLk6GJQsqaUBKTNV-1">
          <mxGeometry x="223" y="445" width="120" height="60" as="geometry" />
        </mxCell>
        <mxCell id="7nWHytdZgHWwC759bLuL-26" style="edgeStyle=orthogonalEdgeStyle;rounded=0;orthogonalLoop=1;jettySize=auto;html=1;exitX=0;exitY=0.5;exitDx=0;exitDy=0;entryX=1;entryY=0.5;entryDx=0;entryDy=0;" edge="1" parent="WIyWlLk6GJQsqaUBKTNV-1" source="7nWHytdZgHWwC759bLuL-45" target="7nWHytdZgHWwC759bLuL-4">
          <mxGeometry relative="1" as="geometry">
            <mxPoint x="501" y="475" as="sourcePoint" />
          </mxGeometry>
        </mxCell>
        <mxCell id="7nWHytdZgHWwC759bLuL-39" value="get output file linked to nft" style="edgeStyle=orthogonalEdgeStyle;rounded=0;orthogonalLoop=1;jettySize=auto;html=1;exitX=0.5;exitY=1;exitDx=0;exitDy=0;" edge="1" parent="WIyWlLk6GJQsqaUBKTNV-1" source="7nWHytdZgHWwC759bLuL-45" target="7nWHytdZgHWwC759bLuL-36">
          <mxGeometry relative="1" as="geometry">
            <mxPoint x="545" y="497.8000000000002" as="sourcePoint" />
          </mxGeometry>
        </mxCell>
        <mxCell id="7nWHytdZgHWwC759bLuL-30" value="Register/Sign in" style="edgeStyle=orthogonalEdgeStyle;rounded=0;orthogonalLoop=1;jettySize=auto;html=1;exitX=0;exitY=0.5;exitDx=0;exitDy=0;exitPerimeter=0;entryX=0.5;entryY=1;entryDx=0;entryDy=0;" edge="1" parent="WIyWlLk6GJQsqaUBKTNV-1" source="7nWHytdZgHWwC759bLuL-29" target="7nWHytdZgHWwC759bLuL-3">
          <mxGeometry relative="1" as="geometry" />
        </mxCell>
        <mxCell id="7nWHytdZgHWwC759bLuL-41" value="Wassie proof of ownership" style="edgeStyle=orthogonalEdgeStyle;rounded=0;orthogonalLoop=1;jettySize=auto;html=1;exitX=1;exitY=0.5;exitDx=0;exitDy=0;exitPerimeter=0;entryX=0.5;entryY=1;entryDx=0;entryDy=0;" edge="1" parent="WIyWlLk6GJQsqaUBKTNV-1" source="7nWHytdZgHWwC759bLuL-29" target="7nWHytdZgHWwC759bLuL-36">
          <mxGeometry relative="1" as="geometry" />
        </mxCell>
        <mxCell id="7nWHytdZgHWwC759bLuL-49" value="gib eth" style="edgeStyle=orthogonalEdgeStyle;rounded=0;orthogonalLoop=1;jettySize=auto;html=1;exitX=0.145;exitY=0.855;exitDx=0;exitDy=0;exitPerimeter=0;entryX=0;entryY=0.5;entryDx=0;entryDy=0;" edge="1" parent="WIyWlLk6GJQsqaUBKTNV-1" source="7nWHytdZgHWwC759bLuL-29" target="7nWHytdZgHWwC759bLuL-4">
          <mxGeometry relative="1" as="geometry" />
        </mxCell>
        <mxCell id="7nWHytdZgHWwC759bLuL-29" value="Wallet" style="strokeWidth=2;html=1;shape=mxgraph.flowchart.start_1;whiteSpace=wrap;" vertex="1" parent="WIyWlLk6GJQsqaUBKTNV-1">
          <mxGeometry x="370" y="740" width="100" height="60" as="geometry" />
        </mxCell>
        <mxCell id="7nWHytdZgHWwC759bLuL-42" value="Assembled wassie" style="edgeStyle=orthogonalEdgeStyle;rounded=0;orthogonalLoop=1;jettySize=auto;html=1;exitX=0;exitY=0.5;exitDx=0;exitDy=0;entryX=1;entryY=0.5;entryDx=0;entryDy=0;" edge="1" parent="WIyWlLk6GJQsqaUBKTNV-1" source="7nWHytdZgHWwC759bLuL-36" target="7nWHytdZgHWwC759bLuL-3">
          <mxGeometry relative="1" as="geometry" />
        </mxCell>
        <mxCell id="7nWHytdZgHWwC759bLuL-36" value="Builder" style="rounded=1;whiteSpace=wrap;html=1;" vertex="1" parent="WIyWlLk6GJQsqaUBKTNV-1">
          <mxGeometry x="485" y="600" width="120" height="60" as="geometry" />
        </mxCell>
        <mxCell id="7nWHytdZgHWwC759bLuL-45" value="JSON Output" style="shape=parallelogram;html=1;strokeWidth=2;perimeter=parallelogramPerimeter;whiteSpace=wrap;rounded=1;arcSize=12;size=0.23;" vertex="1" parent="WIyWlLk6GJQsqaUBKTNV-1">
          <mxGeometry x="487.5" y="445" width="115" height="60" as="geometry" />
        </mxCell>
      </root>
    </mxGraphModel>
  </diagram>
</mxfile>
